<svg width="36" height="36" viewBox="0 0 36 36" fill="none" xmlns="http://www.w3.org/2000/svg">
<path d="M36 18C36 27.9411 27.9411 36 18 36C8.05887 36 0 27.9411 0 18C0 8.05887 8.05887 0 18 0C27.9411 0 36 8.05887 36 18Z" fill="#E7615A"/>
<rect x="7.54999" y="6.59808" width="3" height="16" rx="1.5" fill="#F3F8F7"/>
<rect x="7.54999" y="18.5981" width="3" height="23" rx="1.5" transform="rotate(-90 7.54999 18.5981)" fill="#F3F8F7"/>
<rect x="7" y="8.59808" width="3" height="12" rx="1.5" transform="rotate(-60 7 8.59808)" fill="#F3F8F7"/>
<rect x="15.35" y="11.0481" width="3" height="18" rx="1.5" fill="#F3F8F7"/>
<rect x="23" y="11" width="3" height="18" rx="1.5" fill="#F3F8F7"/>
<path d="M7.1849 26.6774C7.07293 26.5094 7.07293 26.2906 7.1849 26.1227L8.58397 24.0241C8.78189 23.7272 9.21811 23.7272 9.41602 24.0241L10.8151 26.1227C10.9271 26.2906 10.9271 26.5094 10.8151 26.6774L9.41603 28.776C9.21811 29.0729 8.78189 29.0729 8.58397 28.776L7.1849 26.6774Z" fill="#F3F8F7"/>
</svg>
